<?xml version="1.0" encoding="UTF-8"?>
<!DOCTYPE svg PUBLIC "-//W3C//DTD SVG 1.1//EN" "http://www.w3.org/Graphics/SVG/1.1/DTD/svg11.dtd">
<!-- Creator: CorelDRAW 2020 (64-Bit) -->
<svg xmlns="http://www.w3.org/2000/svg" xml:space="preserve" width="2.10363in" height="0.622394in" version="1.1" style="shape-rendering:geometricPrecision; text-rendering:geometricPrecision; image-rendering:optimizeQuality; fill-rule:evenodd; clip-rule:evenodd"
viewBox="0 0 164.17 48.57"
 xmlns:xlink="http://www.w3.org/1999/xlink"
 xmlns:xodm="http://www.corel.com/coreldraw/odm/2003">
 <defs>
  <style type="text/css">
   <![CDATA[
    .fil1 {fill:#373435;fill-rule:nonzero}
    .fil0 {fill:#373435;fill-rule:nonzero}
   ]]>
  </style>
 </defs>
 <g id="Layer_x0020_1">
  <metadata id="CorelCorpID_0Corel-Layer"/>
  <g id="_2846936548976">
   <polygon class="fil0" points="13.85,44.94 13.85,45.66 16.58,45.66 16.58,44.94 "/>
   <path class="fil0" d="M14 45.09l0 0.41 2.43 0 0 -0.41 -2.43 0zm-0.3 0.57l0 -0.87 3.04 0 0 1.02 -3.04 0 0 -0.15z"/>
   <path class="fil0" d="M27.29 43.85c0.05,-0.11 0.09,-0.24 0.09,-0.39 0,-0.66 -0.76,-0.87 -0.76,-1.34l-0.82 0c0,0.84 0.76,0.82 0.76,1.38 0,0.14 -0.01,0.25 -0.03,0.32 -1.29,0.12 -1.88,1.08 -1.88,2.29 0,1.29 0.67,2.3 2.16,2.3 1.49,0 2.16,-1.01 2.16,-2.3 0,-1.14 -0.53,-2.06 -1.67,-2.27zm-0.49 3.89c-0.92,0 -1.26,-0.66 -1.26,-1.62 0,-0.98 0.35,-1.64 1.26,-1.64 0.96,0 1.27,0.66 1.27,1.64 0,0.96 -0.35,1.62 -1.27,1.62z"/>
   <path class="fil0" d="M27.15 43.78c0.02,-0.05 0.04,-0.1 0.05,-0.15 0.01,-0.05 0.02,-0.11 0.02,-0.17 0,-0.3 -0.2,-0.5 -0.39,-0.68 -0.16,-0.16 -0.3,-0.3 -0.36,-0.5l-0.53 0c0.04,0.29 0.22,0.44 0.37,0.58 0.2,0.17 0.38,0.33 0.38,0.65l-0.01 0.2c-0.01,0.06 -0.01,0.12 -0.02,0.16l-0.02 0.11 -0.11 0.01c-0.57,0.05 -1,0.29 -1.28,0.63 -0.31,0.38 -0.46,0.91 -0.46,1.51 0,0.64 0.17,1.21 0.54,1.59 0.33,0.35 0.81,0.56 1.47,0.56 0.66,0 1.15,-0.21 1.47,-0.56 0.36,-0.39 0.54,-0.95 0.54,-1.59 0,-0.56 -0.13,-1.07 -0.41,-1.44 -0.25,-0.34 -0.63,-0.58 -1.14,-0.68l-0.2 -0.04 0.09 -0.18zm0.35 -0.09l-0.01 0.04c0.5,0.13 0.88,0.39 1.15,0.76 0.32,0.43 0.47,1 0.47,1.62 0,0.72 -0.2,1.35 -0.62,1.8 -0.38,0.41 -0.94,0.65 -1.69,0.65 -0.75,0 -1.31,-0.25 -1.69,-0.65 -0.42,-0.45 -0.62,-1.09 -0.62,-1.8 0,-0.67 0.17,-1.26 0.53,-1.7 0.31,-0.38 0.77,-0.64 1.37,-0.73l0.01 -0.19c0,-0.19 -0.13,-0.3 -0.27,-0.42 -0.23,-0.2 -0.49,-0.43 -0.49,-0.96l0 -0.15 1.13 0 0 0.15c0,0.15 0.14,0.29 0.29,0.44 0.23,0.23 0.48,0.48 0.48,0.9 0,0.08 -0.01,0.16 -0.03,0.24zm-0.7 4.2c-0.49,0 -0.83,-0.17 -1.06,-0.47 -0.25,-0.32 -0.35,-0.77 -0.35,-1.31 0,-0.54 0.11,-1 0.35,-1.32 0.23,-0.3 0.58,-0.47 1.07,-0.47 0.54,0 0.89,0.19 1.12,0.52 0.21,0.32 0.3,0.76 0.3,1.27 0,0.54 -0.11,0.99 -0.35,1.3 -0.23,0.3 -0.58,0.47 -1.06,0.47zm-0.82 -0.65c0.17,0.22 0.44,0.35 0.82,0.35 0.38,0 0.65,-0.13 0.83,-0.35 0.2,-0.26 0.29,-0.65 0.29,-1.12 0,-0.46 -0.07,-0.84 -0.25,-1.1 -0.17,-0.25 -0.44,-0.39 -0.87,-0.39 -0.38,0 -0.65,0.13 -0.82,0.35 -0.2,0.26 -0.29,0.66 -0.29,1.14 0,0.47 0.09,0.86 0.29,1.12z"/>
   <path class="fil0" d="M34.6 42.01c-0.47,0 -0.94,0.18 -1.13,0.76 -0.14,-0.58 -0.49,-0.76 -0.84,-0.76 -0.24,0 -0.39,0.05 -0.58,0.05 -0.1,0 -0.2,-0.02 -0.27,-0.04l-0.16 0.65c0.18,0.11 0.34,0.13 0.51,0.13 0.17,0 0.29,-0.03 0.48,-0.03 0.31,0 0.45,0.22 0.45,0.57l0 1.19 0.83 0 0 -1.05c0,-0.48 0.2,-0.78 0.65,-0.78 0.41,0 0.59,0.28 0.59,0.87l0 2.77c0,0.9 -0.37,1.37 -1.14,1.37 -0.8,0 -1.11,-0.5 -1.11,-1.17 0,-0.28 0.05,-0.56 0.15,-0.79l-0.75 -0.23c-0.21,0.37 -0.29,0.75 -0.29,1.1 0,1 0.71,1.79 2,1.79 1.29,0 1.99,-0.84 1.99,-1.97l0 -2.9c0,-1.07 -0.6,-1.53 -1.38,-1.53zm5.64 3.38c0,1.88 1.11,3.01 2.7,3.01 1.6,0 2.7,-1.16 2.7,-3.02 0,-1.79 -0.94,-2.81 -2.34,-2.99l0.05 -0.39 -0.83 0 0.05 0.39c-1.39,0.2 -2.32,1.27 -2.32,3zm0.89 0c0,-1.45 0.57,-2.18 1.44,-2.38 -0.04,0.19 -0.05,0.36 -0.05,0.52l0 1.95 0.83 0 0 -1.93c0,-0.17 -0.01,-0.35 -0.05,-0.55 0.9,0.2 1.45,0.92 1.45,2.38 0,1.64 -0.73,2.33 -1.81,2.33 -1.05,0 -1.81,-0.69 -1.81,-2.32zm8.63 -0.59c0,1.74 0.41,2.84 0.69,3.5l0.85 0c-0.44,-1 -0.66,-1.99 -0.66,-3.47 0,-1.57 0.37,-2.12 1.24,-2.12 0.87,0 1.24,0.69 1.24,2.1 0,1.5 -0.25,2.49 -0.66,3.49l0.85 0c0.29,-0.66 0.69,-1.76 0.69,-3.5 0,-2.04 -0.89,-2.79 -2.11,-2.79 -1.43,0 -2.12,0.9 -2.12,2.79zm10.67 -0.12c0.71,-0.18 1.13,-0.64 1.13,-1.35 0,-0.46 -0.2,-0.9 -0.42,-1.2l-0.82 0c0.22,0.35 0.38,0.77 0.38,1.24 0,0.7 -0.39,0.99 -1.07,0.99l-0.05 0 -0.11 0.7 0.27 0c0.78,0 1.23,0.51 1.23,1.36 0,0.78 -0.35,1.32 -1.1,1.32 -0.78,0 -1.09,-0.49 -1.09,-1.14 0,-0.27 0.05,-0.54 0.14,-0.75l-0.75 -0.22c-0.2,0.35 -0.27,0.72 -0.27,1.04 0,0.98 0.69,1.77 1.97,1.77 1.34,0 2.01,-0.91 2.01,-2.02 0,-1.03 -0.61,-1.61 -1.44,-1.73zm13.12 3.75c1.39,0 2.06,-0.98 2.06,-1.96 0,-1.34 -0.96,-1.75 -0.97,-2.56l-0.84 0c0,1.2 0.9,1.41 0.9,2.56 0,0.66 -0.35,1.26 -1.15,1.26 -0.9,0 -1.19,-0.65 -1.19,-1.43l0 -4.17 -0.85 0 0 4.18c0,1.27 0.67,2.12 2.04,2.12zm8.51 -6.3l-0.88 0c0,2.17 1.7,2.45 1.7,4.29 0,0.72 -0.31,1.31 -1.16,1.31 -0.81,0 -1.15,-0.56 -1.15,-1.3 0,-0.33 0.08,-0.71 0.22,-0.99l-0.73 -0.24c-0.28,0.45 -0.38,0.93 -0.38,1.33 0,1.1 0.77,1.9 2.04,1.9 1.27,0 2.06,-0.83 2.06,-1.99 0,-2.02 -1.72,-2.45 -1.72,-4.31zm8.03 6.3c1.39,0 2.06,-0.98 2.06,-1.96 0,-1.34 -0.96,-1.75 -0.97,-2.56l-0.84 0c0,1.2 0.9,1.41 0.9,2.56 0,0.66 -0.35,1.26 -1.15,1.26 -0.9,0 -1.19,-0.65 -1.19,-1.43l0 -4.17 -0.85 0 0 4.18c0,1.27 0.67,2.12 2.04,2.12zm6.12 -3.03c0,1.88 1.11,3.01 2.7,3.01 1.6,0 2.7,-1.16 2.7,-3.02 0,-1.79 -0.94,-2.81 -2.34,-2.99l0.05 -0.39 -0.83 0 0.05 0.39c-1.39,0.2 -2.32,1.27 -2.32,3zm0.89 0c0,-1.45 0.57,-2.18 1.44,-2.38 -0.04,0.19 -0.05,0.36 -0.05,0.52l0 1.95 0.83 0 0 -1.93c0,-0.17 -0.01,-0.35 -0.05,-0.55 0.9,0.2 1.45,0.92 1.45,2.38 0,1.64 -0.73,2.33 -1.81,2.33 -1.05,0 -1.81,-0.69 -1.81,-2.32zm11.3 -3.38c-0.47,0 -0.94,0.18 -1.13,0.76 -0.14,-0.58 -0.49,-0.76 -0.84,-0.76 -0.24,0 -0.39,0.05 -0.58,0.05 -0.1,0 -0.2,-0.02 -0.27,-0.04l-0.16 0.65c0.18,0.11 0.34,0.13 0.51,0.13 0.17,0 0.29,-0.03 0.48,-0.03 0.31,0 0.45,0.22 0.45,0.57l0 1.19 0.83 0 0 -1.05c0,-0.48 0.2,-0.78 0.65,-0.78 0.41,0 0.59,0.28 0.59,0.87l0 2.77c0,0.9 -0.37,1.37 -1.14,1.37 -0.8,0 -1.11,-0.5 -1.11,-1.17 0,-0.28 0.05,-0.56 0.15,-0.79l-0.75 -0.23c-0.21,0.37 -0.29,0.75 -0.29,1.1 0,1 0.71,1.79 2,1.79 1.29,0 1.99,-0.84 1.99,-1.97l0 -2.9c0,-1.07 -0.6,-1.53 -1.38,-1.53zm7.73 0c-1.09,0 -1.89,0.55 -1.89,1.35 0,0.06 0.01,0.14 0.03,0.21l0.82 -0.09 0 -0.1c0,-0.41 0.34,-0.7 1.05,-0.7 0.83,0 1.17,0.45 1.17,1.15l0 0.62c-0.31,-0.32 -0.71,-0.55 -1.26,-0.55 -1.21,0 -1.98,1.03 -1.98,2.25 0,1.25 0.67,2.27 2.07,2.27 1.34,0 2.03,-0.96 2.03,-2.26l0 -2.36c0,-1.05 -0.7,-1.79 -2.03,-1.79zm-0.01 5.73c-0.81,0 -1.16,-0.66 -1.16,-1.59 0,-1.03 0.49,-1.58 1.15,-1.58 0.52,0 0.89,0.22 1.19,0.56l0 1.01c0,0.82 -0.31,1.59 -1.18,1.59zm6.84 0.56l0.89 0c-0.37,-0.9 -0.53,-1.56 -0.53,-2.38 0,-0.92 0.31,-1.33 0.95,-1.33 0.41,0 0.84,0.24 0.84,0.97l0 1.38 0.83 0 0 -1.38c0,-0.73 0.38,-0.97 0.82,-0.97 0.54,0 0.98,0.27 0.98,1.34 0,0.8 -0.18,1.45 -0.54,2.36l0.89 0c0.28,-0.62 0.56,-1.37 0.56,-2.38 0,-1.4 -0.77,-2.03 -1.75,-2.03 -0.72,0 -1.2,0.29 -1.36,0.98 -0.16,-0.68 -0.66,-0.98 -1.25,-0.98 -0.45,0 -0.76,0.14 -1.03,0.48 0.24,-0.64 0.75,-1.08 1.94,-1.25 0.84,-0.12 1.43,-0.25 1.8,-0.49l-0.31 -0.64c-0.31,0.16 -0.99,0.32 -1.77,0.47 -2.06,0.4 -2.49,1.46 -2.49,3.28 0,1.16 0.27,1.93 0.55,2.55z"/>
   <path class="fil0" d="M34.6 42.16c-0.23,0 -0.45,0.05 -0.64,0.17 -0.15,0.1 -0.27,0.26 -0.35,0.49l-0.16 0.51 -0.13 -0.52c-0.06,-0.23 -0.15,-0.39 -0.26,-0.49 -0.12,-0.11 -0.28,-0.16 -0.43,-0.16 -0.12,0 -0.22,0.01 -0.31,0.03 -0.09,0.01 -0.18,0.03 -0.28,0.03 -0.05,0 -0.11,-0 -0.16,-0.01l-0.09 0.38 0.12 0.04c0.07,0.02 0.14,0.02 0.22,0.02 0.08,0 0.14,-0.01 0.21,-0.01 0.08,-0.01 0.16,-0.01 0.26,-0.01 0.2,0 0.35,0.07 0.46,0.2 0.1,0.13 0.14,0.31 0.14,0.52l0 1.04 0.53 0 0 -0.9c0,-0.28 0.06,-0.51 0.2,-0.68 0.13,-0.16 0.33,-0.25 0.6,-0.25 0.26,0 0.45,0.09 0.58,0.28 0.11,0.17 0.17,0.42 0.17,0.74l0 2.77c0,0.49 -0.11,0.87 -0.32,1.13 -0.22,0.26 -0.54,0.4 -0.97,0.4 -0.42,0 -0.73,-0.13 -0.93,-0.35 -0.23,-0.24 -0.33,-0.59 -0.33,-0.98 0,-0.15 0.01,-0.3 0.04,-0.45 0.02,-0.08 0.04,-0.16 0.06,-0.24l-0.48 -0.14c-0.06,0.13 -0.11,0.26 -0.14,0.39 -0.05,0.18 -0.07,0.36 -0.07,0.53 0,0.48 0.17,0.9 0.5,1.19 0.31,0.28 0.76,0.45 1.35,0.45 0.58,0 1.03,-0.18 1.34,-0.49 0.33,-0.32 0.5,-0.79 0.5,-1.33l0 -2.9c0,-0.47 -0.12,-0.8 -0.32,-1.02 -0.22,-0.24 -0.54,-0.36 -0.91,-0.36zm-0.81 -0.08c0.24,-0.16 0.53,-0.22 0.81,-0.22 0.45,0 0.85,0.15 1.13,0.46 0.25,0.28 0.4,0.68 0.4,1.23l0 2.9c0,0.62 -0.2,1.17 -0.59,1.55 -0.36,0.36 -0.89,0.57 -1.55,0.57 -0.66,0 -1.18,-0.2 -1.55,-0.53 -0.4,-0.35 -0.6,-0.86 -0.6,-1.42 0,-0.19 0.02,-0.4 0.08,-0.6 0.05,-0.19 0.12,-0.38 0.23,-0.57l0.06 -0.11 1.04 0.31 -0.07 0.16c-0.04,0.1 -0.08,0.21 -0.1,0.34 -0.02,0.13 -0.04,0.26 -0.04,0.39 0,0.32 0.07,0.59 0.24,0.77 0.15,0.16 0.38,0.25 0.71,0.25 0.33,0 0.58,-0.1 0.74,-0.29 0.17,-0.2 0.25,-0.51 0.25,-0.93l0 -2.77c0,-0.26 -0.04,-0.45 -0.11,-0.57 -0.07,-0.1 -0.17,-0.15 -0.33,-0.15 -0.17,0 -0.29,0.05 -0.36,0.14 -0.09,0.11 -0.13,0.27 -0.13,0.48l0 1.2 -1.14 0 0 -1.34c0,-0.15 -0.03,-0.27 -0.08,-0.34 -0.04,-0.05 -0.11,-0.09 -0.21,-0.09 -0.09,0 -0.16,0.01 -0.24,0.01 -0.07,0.01 -0.15,0.01 -0.24,0.01 -0.09,0 -0.19,-0.01 -0.29,-0.03 -0.1,-0.02 -0.2,-0.06 -0.3,-0.12l-0.1 -0.06 0.23 -0.92 0.16 0.05 0.11 0.03 0.11 0.01c0.08,0 0.15,-0.01 0.23,-0.02 0.1,-0.01 0.21,-0.03 0.35,-0.03 0.22,0 0.45,0.06 0.63,0.24 0.08,0.08 0.16,0.17 0.22,0.29 0.09,-0.13 0.19,-0.23 0.3,-0.31zm6.6 3.31c0,0.89 0.26,1.6 0.69,2.09 0.45,0.5 1.09,0.77 1.85,0.77 0.76,0 1.4,-0.28 1.85,-0.78 0.44,-0.49 0.7,-1.21 0.7,-2.09 0,-0.84 -0.21,-1.49 -0.58,-1.97 -0.39,-0.49 -0.95,-0.79 -1.63,-0.88l-0.15 -0.02 0.04 -0.37 -0.48 0 0.04 0.37 -0.15 0.02c-0.67,0.1 -1.23,0.4 -1.61,0.9 -0.37,0.48 -0.58,1.14 -0.58,1.95zm0.47 2.29c-0.49,-0.54 -0.77,-1.32 -0.77,-2.29 0,-0.89 0.24,-1.61 0.65,-2.14 0.4,-0.52 0.98,-0.86 1.66,-0.99l-0.05 -0.42 1.17 0 -0.05 0.42c0.69,0.12 1.27,0.45 1.68,0.97 0.41,0.53 0.65,1.25 0.65,2.15 0,0.96 -0.29,1.74 -0.78,2.29 -0.5,0.57 -1.22,0.88 -2.07,0.88 -0.85,0 -1.57,-0.31 -2.08,-0.87zm0.12 -2.29c0,-0.73 0.14,-1.28 0.38,-1.69 0.27,-0.46 0.68,-0.73 1.17,-0.84l0.23 -0.05 -0.04 0.23c-0.02,0.09 -0.03,0.17 -0.03,0.25l-0.01 0.24 0 1.79 0.52 0 0 -1.78 -0.01 -0.25c-0.01,-0.09 -0.02,-0.18 -0.03,-0.27l-0.04 -0.22 0.22 0.05c0.5,0.11 0.91,0.38 1.19,0.83 0.25,0.41 0.39,0.97 0.39,1.7 0,0.82 -0.18,1.42 -0.49,1.83 -0.35,0.45 -0.86,0.66 -1.47,0.66 -0.6,0 -1.11,-0.21 -1.46,-0.66 -0.31,-0.4 -0.5,-1 -0.5,-1.81zm0.64 -1.53c-0.22,0.36 -0.34,0.87 -0.34,1.53 0,0.74 0.16,1.27 0.43,1.62 0.29,0.37 0.72,0.55 1.23,0.55 0.52,0 0.94,-0.17 1.23,-0.54 0.27,-0.35 0.43,-0.89 0.43,-1.64 0,-0.68 -0.12,-1.18 -0.34,-1.55 -0.19,-0.31 -0.45,-0.51 -0.78,-0.63l0.02 0.34 0 2.08 -1.13 0 0 -2.1 0.01 -0.3c-0.31,0.12 -0.57,0.33 -0.76,0.64zm8.29 0.94c0,0.86 0.1,1.56 0.24,2.12 0.12,0.51 0.27,0.91 0.4,1.22l0.52 0c-0.18,-0.44 -0.32,-0.89 -0.42,-1.37 -0.11,-0.57 -0.17,-1.19 -0.17,-1.94 0,-0.81 0.1,-1.37 0.31,-1.73 0.23,-0.38 0.58,-0.54 1.08,-0.54 0.49,0 0.85,0.2 1.08,0.6 0.21,0.37 0.31,0.92 0.31,1.65 0,0.76 -0.06,1.39 -0.18,1.96 -0.1,0.49 -0.24,0.94 -0.41,1.37l0.53 0c0.13,-0.31 0.28,-0.71 0.4,-1.22 0.13,-0.56 0.23,-1.26 0.23,-2.12 0,-0.92 -0.19,-1.57 -0.5,-1.99 -0.35,-0.46 -0.86,-0.65 -1.46,-0.65 -0.66,0 -1.15,0.2 -1.47,0.62 -0.33,0.43 -0.49,1.1 -0.49,2.01zm-0.06 2.19c-0.14,-0.59 -0.25,-1.31 -0.25,-2.19 0,-0.98 0.18,-1.71 0.56,-2.19 0.38,-0.5 0.95,-0.75 1.71,-0.75 0.69,0 1.29,0.23 1.7,0.77 0.36,0.47 0.57,1.18 0.57,2.17 0,0.88 -0.1,1.61 -0.24,2.19 -0.14,0.58 -0.31,1.03 -0.46,1.37l-0.04 0.09 -1.18 0 0.09 -0.21c0.2,-0.49 0.37,-0.98 0.48,-1.53 0.11,-0.55 0.17,-1.16 0.17,-1.9 0,-0.68 -0.09,-1.18 -0.27,-1.5 -0.17,-0.3 -0.44,-0.44 -0.81,-0.44 -0.38,0 -0.65,0.12 -0.81,0.4 -0.19,0.31 -0.27,0.81 -0.27,1.57 0,0.73 0.05,1.34 0.16,1.88 0.11,0.55 0.27,1.03 0.49,1.52l0.09 0.21 -1.18 0 -0.04 -0.09c-0.14,-0.33 -0.32,-0.78 -0.46,-1.37zm10.54 -2.46c0.33,-0.08 0.59,-0.23 0.76,-0.44 0.16,-0.2 0.25,-0.45 0.25,-0.77 0,-0.19 -0.04,-0.38 -0.1,-0.56 -0.06,-0.18 -0.15,-0.35 -0.25,-0.49l-0.48 0c0.07,0.13 0.12,0.27 0.17,0.42 0.06,0.21 0.1,0.43 0.1,0.67 0,0.4 -0.12,0.68 -0.33,0.87 -0.2,0.17 -0.47,0.26 -0.81,0.27l-0.03 0.22 0.72 -0.18zm0.99 -0.24c-0.12,0.15 -0.28,0.27 -0.46,0.37 0.27,0.11 0.5,0.27 0.69,0.49 0.26,0.31 0.41,0.74 0.41,1.27 0,0.62 -0.2,1.18 -0.6,1.58 -0.36,0.36 -0.88,0.59 -1.56,0.59 -0.66,0 -1.17,-0.2 -1.53,-0.52 -0.39,-0.35 -0.6,-0.85 -0.6,-1.4 0,-0.18 0.02,-0.38 0.07,-0.58 0.05,-0.18 0.12,-0.36 0.22,-0.53l0.06 -0.1 1.03 0.3 -0.06 0.16c-0.04,0.1 -0.07,0.21 -0.1,0.33 -0.02,0.12 -0.03,0.24 -0.03,0.36 0,0.3 0.07,0.57 0.24,0.74 0.15,0.15 0.37,0.25 0.7,0.25 0.31,0 0.55,-0.11 0.7,-0.29 0.17,-0.2 0.25,-0.51 0.25,-0.88 0,-0.39 -0.1,-0.7 -0.29,-0.9 -0.18,-0.2 -0.45,-0.31 -0.79,-0.31l-0.45 0 0.15 -1 0.18 0c0.3,0 0.54,-0.06 0.69,-0.19 0.15,-0.13 0.23,-0.34 0.23,-0.64 0,-0.2 -0.03,-0.4 -0.09,-0.58 -0.06,-0.21 -0.16,-0.4 -0.27,-0.58l-0.14 -0.23 1.16 0 0.05 0.06c0.13,0.17 0.25,0.39 0.33,0.63 0.07,0.21 0.12,0.43 0.12,0.66 0,0.39 -0.11,0.71 -0.33,0.96zm-1.71 0.43l-0.03 0.17 0.09 0c0.43,0 0.78,0.15 1.02,0.41 0.24,0.26 0.36,0.64 0.36,1.11 0,0.44 -0.11,0.81 -0.32,1.07 -0.21,0.25 -0.52,0.4 -0.93,0.4 -0.41,0 -0.71,-0.13 -0.92,-0.34 -0.23,-0.24 -0.33,-0.57 -0.33,-0.95 0,-0.14 0.01,-0.28 0.04,-0.42 0.02,-0.08 0.03,-0.16 0.06,-0.23l-0.48 -0.14c-0.06,0.12 -0.1,0.24 -0.13,0.36 -0.04,0.17 -0.06,0.34 -0.06,0.5 0,0.47 0.17,0.88 0.49,1.17 0.3,0.27 0.75,0.44 1.33,0.44 0.59,0 1.04,-0.19 1.35,-0.5 0.34,-0.34 0.51,-0.83 0.51,-1.37 0,-0.46 -0.13,-0.81 -0.34,-1.07 -0.23,-0.28 -0.57,-0.45 -0.97,-0.51l-0.73 -0.11zm13.87 3.55c0.6,0 1.06,-0.19 1.37,-0.49 0.36,-0.34 0.54,-0.83 0.54,-1.32 0,-0.71 -0.29,-1.15 -0.55,-1.54 -0.19,-0.29 -0.36,-0.55 -0.41,-0.87l-0.54 0c0.04,0.47 0.23,0.77 0.43,1.07 0.24,0.36 0.47,0.72 0.47,1.34 0,0.39 -0.11,0.76 -0.35,1.03 -0.22,0.24 -0.53,0.39 -0.94,0.39 -0.46,0 -0.79,-0.16 -1,-0.42 -0.25,-0.29 -0.34,-0.71 -0.34,-1.17l0 -4.02 -0.55 0 0 4.03c0,0.61 0.16,1.12 0.49,1.47 0.31,0.32 0.77,0.51 1.39,0.51zm1.58 -0.27c-0.37,0.35 -0.89,0.58 -1.58,0.58 -0.71,0 -1.24,-0.22 -1.61,-0.6 -0.39,-0.4 -0.58,-0.98 -0.58,-1.68l0 -4.33 1.16 0 0 4.32c0,0.39 0.08,0.74 0.27,0.97 0.16,0.19 0.41,0.31 0.77,0.31 0.32,0 0.56,-0.11 0.72,-0.29 0.19,-0.21 0.27,-0.51 0.27,-0.83 0,-0.53 -0.21,-0.85 -0.42,-1.17 -0.24,-0.37 -0.48,-0.74 -0.48,-1.39l0 -0.15 1.14 0 0 0.15c0,0.31 0.18,0.57 0.37,0.86 0.28,0.42 0.6,0.9 0.6,1.7 0,0.57 -0.21,1.13 -0.63,1.54zm6.78 -5.73l-0.58 0c0.04,0.98 0.46,1.55 0.86,2.09 0.42,0.57 0.83,1.11 0.83,2.05 0,0.42 -0.1,0.8 -0.34,1.07 -0.21,0.24 -0.53,0.39 -0.97,0.39 -0.43,0 -0.75,-0.14 -0.96,-0.39 -0.23,-0.26 -0.34,-0.64 -0.34,-1.06 0,-0.18 0.02,-0.37 0.06,-0.55 0.03,-0.12 0.06,-0.24 0.1,-0.35l-0.45 -0.15c-0.09,0.16 -0.16,0.33 -0.2,0.49 -0.06,0.23 -0.09,0.45 -0.09,0.65 0,0.52 0.18,0.96 0.51,1.27 0.32,0.3 0.79,0.48 1.37,0.48 0.59,0 1.06,-0.19 1.39,-0.5 0.34,-0.32 0.52,-0.79 0.52,-1.34 0,-0.98 -0.43,-1.58 -0.86,-2.16 -0.41,-0.57 -0.82,-1.13 -0.86,-2zm-0.73 -0.3l1.03 0 0 0.15c0,0.87 0.4,1.42 0.81,1.97 0.45,0.62 0.91,1.26 0.91,2.34 0,0.63 -0.22,1.17 -0.62,1.55 -0.38,0.37 -0.93,0.59 -1.6,0.59 -0.66,0 -1.2,-0.21 -1.58,-0.56 -0.39,-0.37 -0.61,-0.89 -0.61,-1.49 0,-0.23 0.03,-0.48 0.1,-0.73 0.06,-0.22 0.16,-0.45 0.3,-0.67l0.06 -0.1 1.01 0.34 -0.08 0.16c-0.06,0.13 -0.11,0.28 -0.15,0.44 -0.04,0.16 -0.05,0.33 -0.05,0.48 0,0.35 0.08,0.66 0.26,0.86 0.16,0.18 0.4,0.28 0.73,0.28 0.35,0 0.59,-0.11 0.74,-0.28 0.18,-0.21 0.26,-0.52 0.26,-0.87 0,-0.84 -0.38,-1.34 -0.77,-1.87 -0.45,-0.61 -0.93,-1.25 -0.93,-2.43l0 -0.15 0.15 0zm8.91 6.3c0.6,0 1.06,-0.19 1.37,-0.49 0.36,-0.34 0.54,-0.83 0.54,-1.32 0,-0.71 -0.29,-1.15 -0.55,-1.54 -0.19,-0.29 -0.36,-0.55 -0.41,-0.88l-0.54 0c0.04,0.47 0.23,0.77 0.43,1.07 0.24,0.36 0.47,0.72 0.47,1.34 0,0.39 -0.11,0.76 -0.35,1.03 -0.22,0.24 -0.53,0.39 -0.94,0.39 -0.46,0 -0.79,-0.16 -1,-0.42 -0.25,-0.29 -0.34,-0.71 -0.34,-1.17l0 -4.02 -0.55 0 0 4.03c0,0.61 0.16,1.12 0.49,1.47 0.31,0.32 0.77,0.51 1.39,0.51zm1.58 -0.27c-0.37,0.35 -0.89,0.58 -1.58,0.58 -0.71,0 -1.24,-0.22 -1.61,-0.6 -0.39,-0.4 -0.58,-0.98 -0.58,-1.68l0 -4.33 1.16 0 0 4.32c0,0.39 0.08,0.74 0.27,0.97 0.16,0.19 0.41,0.31 0.77,0.31 0.32,0 0.56,-0.11 0.72,-0.29 0.19,-0.21 0.27,-0.51 0.27,-0.83 0,-0.53 -0.21,-0.85 -0.42,-1.17 -0.24,-0.37 -0.48,-0.74 -0.48,-1.39l0 -0.15 1.14 0 0 0.15c0,0.31 0.18,0.57 0.37,0.86 0.28,0.42 0.6,0.9 0.6,1.7 0,0.57 -0.21,1.13 -0.63,1.54zm4.69 -2.61c0,0.89 0.25,1.6 0.69,2.09 0.45,0.5 1.09,0.77 1.85,0.77 0.76,0 1.4,-0.28 1.85,-0.78 0.44,-0.49 0.7,-1.21 0.7,-2.09 0,-0.84 -0.21,-1.49 -0.58,-1.97 -0.39,-0.49 -0.95,-0.79 -1.63,-0.88l-0.15 -0.02 0.04 -0.37 -0.48 0 0.04 0.37 -0.15 0.02c-0.67,0.1 -1.23,0.4 -1.61,0.9 -0.37,0.48 -0.58,1.14 -0.58,1.95zm0.47 2.29c-0.49,-0.54 -0.77,-1.32 -0.77,-2.29 0,-0.89 0.24,-1.61 0.65,-2.14 0.4,-0.52 0.98,-0.86 1.66,-0.99l-0.05 -0.42 1.17 0 -0.05 0.42c0.69,0.12 1.27,0.45 1.68,0.97 0.41,0.53 0.65,1.25 0.65,2.15 0,0.96 -0.29,1.74 -0.78,2.29 -0.51,0.57 -1.23,0.88 -2.07,0.88 -0.85,0 -1.57,-0.31 -2.08,-0.87zm0.11 -2.29c0,-0.73 0.14,-1.28 0.38,-1.69 0.27,-0.46 0.68,-0.73 1.17,-0.84l0.23 -0.05 -0.04 0.23c-0.02,0.09 -0.03,0.17 -0.03,0.25l-0.01 0.24 0 1.79 0.52 0 0 -1.78 -0.01 -0.25c-0.01,-0.09 -0.02,-0.18 -0.03,-0.27l-0.04 -0.22 0.22 0.05c0.5,0.11 0.91,0.38 1.19,0.83 0.25,0.41 0.39,0.97 0.39,1.7 0,0.82 -0.18,1.42 -0.49,1.83 -0.35,0.45 -0.86,0.66 -1.47,0.66 -0.6,0 -1.11,-0.21 -1.46,-0.66 -0.31,-0.4 -0.5,-1 -0.5,-1.81zm0.64 -1.53c-0.22,0.36 -0.34,0.86 -0.34,1.53 0,0.74 0.16,1.27 0.43,1.62 0.29,0.37 0.72,0.55 1.23,0.55 0.52,0 0.94,-0.17 1.23,-0.54 0.27,-0.35 0.43,-0.89 0.43,-1.64 0,-0.68 -0.12,-1.18 -0.34,-1.55 -0.19,-0.31 -0.45,-0.51 -0.78,-0.63l0.02 0.34 0 2.08 -1.13 0 0 -2.1 0.01 -0.3c-0.31,0.12 -0.57,0.33 -0.76,0.64zm10.8 -1.69c-0.23,0 -0.45,0.05 -0.64,0.17 -0.15,0.1 -0.27,0.26 -0.35,0.49l-0.16 0.51 -0.13 -0.52c-0.06,-0.23 -0.15,-0.39 -0.26,-0.49 -0.12,-0.11 -0.28,-0.16 -0.43,-0.16 -0.12,0 -0.22,0.01 -0.31,0.03 -0.09,0.01 -0.18,0.03 -0.28,0.03 -0.05,0 -0.11,-0 -0.16,-0.01l-0.09 0.38 0.12 0.04c0.07,0.02 0.14,0.02 0.22,0.02 0.08,0 0.14,-0.01 0.21,-0.01 0.08,-0.01 0.16,-0.01 0.26,-0.01 0.2,0 0.35,0.07 0.46,0.2 0.1,0.13 0.14,0.31 0.14,0.52l0 1.04 0.53 0 0 -0.9c0,-0.28 0.06,-0.51 0.2,-0.68 0.13,-0.16 0.33,-0.25 0.6,-0.25 0.26,0 0.45,0.09 0.58,0.28 0.11,0.17 0.17,0.42 0.17,0.74l0 2.77c0,0.49 -0.11,0.87 -0.32,1.13 -0.22,0.26 -0.54,0.4 -0.97,0.4 -0.42,0 -0.73,-0.13 -0.93,-0.35 -0.23,-0.24 -0.33,-0.59 -0.33,-0.98 0,-0.15 0.01,-0.3 0.04,-0.45 0.02,-0.08 0.04,-0.16 0.06,-0.24l-0.48 -0.14c-0.06,0.13 -0.11,0.26 -0.14,0.39 -0.05,0.18 -0.07,0.36 -0.07,0.53 0,0.48 0.17,0.9 0.5,1.19 0.31,0.28 0.76,0.45 1.35,0.45 0.58,0 1.03,-0.18 1.34,-0.49 0.33,-0.32 0.5,-0.79 0.5,-1.33l0 -2.9c0,-0.47 -0.12,-0.8 -0.32,-1.02 -0.22,-0.24 -0.54,-0.36 -0.91,-0.36zm-0.81 -0.08c0.24,-0.16 0.53,-0.22 0.81,-0.22 0.45,0 0.85,0.15 1.13,0.46 0.25,0.28 0.4,0.68 0.4,1.23l0 2.9c0,0.62 -0.2,1.17 -0.59,1.55 -0.36,0.36 -0.89,0.57 -1.55,0.57 -0.66,0 -1.18,-0.2 -1.55,-0.53 -0.4,-0.35 -0.6,-0.86 -0.6,-1.42 0,-0.19 0.02,-0.39 0.08,-0.6 0.05,-0.19 0.12,-0.38 0.23,-0.57l0.06 -0.11 1.04 0.31 -0.07 0.16c-0.04,0.1 -0.08,0.21 -0.1,0.34 -0.02,0.13 -0.04,0.26 -0.04,0.39 0,0.32 0.07,0.59 0.24,0.77 0.15,0.16 0.38,0.25 0.71,0.25 0.33,0 0.58,-0.1 0.74,-0.29 0.17,-0.2 0.25,-0.51 0.25,-0.93l0 -2.77c0,-0.26 -0.04,-0.45 -0.11,-0.57 -0.07,-0.1 -0.17,-0.15 -0.33,-0.15 -0.17,0 -0.29,0.05 -0.36,0.14 -0.09,0.11 -0.13,0.27 -0.13,0.48l0 1.2 -1.14 0 0 -1.34c0,-0.15 -0.03,-0.27 -0.08,-0.34 -0.04,-0.05 -0.11,-0.09 -0.21,-0.09 -0.09,0 -0.16,0.01 -0.24,0.01 -0.07,0.01 -0.15,0.01 -0.24,0.01 -0.09,0 -0.19,-0.01 -0.29,-0.03 -0.1,-0.02 -0.2,-0.06 -0.3,-0.12l-0.1 -0.06 0.23 -0.92 0.16 0.05 0.11 0.03 0.11 0.01c0.08,0 0.15,-0.01 0.23,-0.02 0.1,-0.01 0.21,-0.03 0.35,-0.03 0.22,0 0.45,0.06 0.63,0.24 0.08,0.08 0.16,0.17 0.22,0.29 0.09,-0.13 0.19,-0.23 0.3,-0.31zm8.53 0.08c-0.52,0 -0.96,0.13 -1.27,0.35 -0.29,0.21 -0.46,0.5 -0.46,0.85l0 0.04 0.54 -0.06c0.01,-0.25 0.12,-0.46 0.34,-0.61 0.2,-0.13 0.48,-0.21 0.86,-0.21 0.44,0 0.77,0.12 0.98,0.33 0.24,0.23 0.34,0.56 0.34,0.97l0 0.99 -0.26 -0.26c-0.14,-0.15 -0.31,-0.27 -0.5,-0.36 -0.19,-0.09 -0.4,-0.14 -0.66,-0.14 -0.54,0 -0.99,0.22 -1.3,0.58 -0.34,0.39 -0.53,0.93 -0.53,1.52 0,0.62 0.17,1.17 0.52,1.56 0.31,0.34 0.78,0.56 1.39,0.56 0.6,0 1.06,-0.21 1.37,-0.55 0.34,-0.38 0.51,-0.92 0.51,-1.56l0 -2.36c0,-0.5 -0.17,-0.92 -0.49,-1.2 -0.31,-0.28 -0.77,-0.44 -1.38,-0.44zm-1.45 0.1c0.36,-0.26 0.87,-0.41 1.45,-0.41 0.68,0 1.21,0.19 1.58,0.52 0.39,0.35 0.6,0.85 0.6,1.43l0 2.36c0,0.71 -0.2,1.33 -0.59,1.76 -0.37,0.41 -0.9,0.65 -1.59,0.65 -0.71,0 -1.25,-0.25 -1.62,-0.66 -0.41,-0.44 -0.61,-1.07 -0.61,-1.76 0,-0.67 0.22,-1.28 0.61,-1.72 0.37,-0.42 0.89,-0.68 1.53,-0.68 0.3,0 0.56,0.06 0.79,0.17 0.12,0.05 0.22,0.12 0.32,0.2l0 -0.29c0,-0.32 -0.08,-0.58 -0.25,-0.75 -0.16,-0.16 -0.41,-0.25 -0.77,-0.25 -0.31,0 -0.54,0.06 -0.69,0.16 -0.14,0.09 -0.21,0.23 -0.21,0.39l0 0.24 -1.08 0.12 -0.04 -0.12 -0.02 -0.12 -0.01 -0.13c0,-0.45 0.22,-0.83 0.59,-1.1zm1.44 5.62c-0.44,0 -0.76,-0.18 -0.98,-0.47 -0.23,-0.31 -0.33,-0.75 -0.33,-1.26 0,-0.53 0.13,-0.95 0.34,-1.24 0.24,-0.33 0.58,-0.49 0.96,-0.49 0.28,0 0.53,0.06 0.74,0.17 0.21,0.11 0.4,0.26 0.56,0.44l0.04 0.04 0 1.07c0,0.48 -0.1,0.94 -0.35,1.26 -0.22,0.29 -0.54,0.47 -0.99,0.47zm-0.73 -0.65c0.16,0.22 0.4,0.35 0.73,0.35 0.34,0 0.59,-0.14 0.75,-0.35 0.2,-0.27 0.28,-0.67 0.28,-1.08l0 -0.96c-0.13,-0.14 -0.27,-0.25 -0.43,-0.33 -0.17,-0.09 -0.37,-0.14 -0.61,-0.14 -0.29,0 -0.54,0.12 -0.72,0.37 -0.17,0.24 -0.28,0.6 -0.28,1.06 0,0.45 0.09,0.83 0.27,1.09zm7.67 0.9l0.56 0c-0.14,-0.37 -0.25,-0.71 -0.33,-1.04 -0.09,-0.39 -0.13,-0.77 -0.13,-1.19 0,-0.49 0.09,-0.85 0.26,-1.09 0.19,-0.26 0.47,-0.38 0.84,-0.38 0.27,0 0.54,0.09 0.74,0.31 0.16,0.18 0.26,0.44 0.26,0.81l0 1.23 0.53 0 0 -1.23c0,-0.37 0.09,-0.64 0.24,-0.82 0.18,-0.22 0.44,-0.31 0.72,-0.31 0.31,0 0.59,0.08 0.81,0.32 0.2,0.23 0.33,0.6 0.33,1.18 0,0.41 -0.05,0.79 -0.14,1.17 -0.08,0.32 -0.19,0.66 -0.33,1.03l0.57 0c0.12,-0.28 0.24,-0.59 0.33,-0.93 0.1,-0.38 0.17,-0.81 0.17,-1.29 0,-0.62 -0.16,-1.08 -0.42,-1.38 -0.29,-0.33 -0.7,-0.49 -1.17,-0.49 -0.34,0 -0.61,0.07 -0.82,0.22 -0.19,0.14 -0.33,0.35 -0.4,0.64l-0.15 0.63 -0.15 -0.63c-0.07,-0.29 -0.2,-0.5 -0.38,-0.64 -0.19,-0.15 -0.44,-0.22 -0.72,-0.22 -0.2,0 -0.37,0.03 -0.52,0.1 -0.15,0.07 -0.27,0.17 -0.39,0.32l-0.6 0.75 0.34 -0.9c0.13,-0.35 0.34,-0.64 0.67,-0.87 0.32,-0.22 0.77,-0.39 1.39,-0.47 0.42,-0.06 0.77,-0.12 1.06,-0.2 0.22,-0.06 0.41,-0.12 0.57,-0.2l-0.19 -0.38c-0.15,0.06 -0.33,0.12 -0.55,0.18 -0.32,0.08 -0.71,0.17 -1.12,0.24 -0.99,0.19 -1.58,0.53 -1.92,1.04 -0.34,0.51 -0.45,1.21 -0.45,2.09 0,0.57 0.07,1.04 0.16,1.44 0.09,0.36 0.21,0.68 0.33,0.96zm0.79 0.3l-0.99 0 -0.04 -0.09c-0.14,-0.32 -0.28,-0.68 -0.39,-1.1 -0.1,-0.43 -0.17,-0.92 -0.17,-1.51 0,-0.94 0.11,-1.69 0.5,-2.26 0.39,-0.58 1.04,-0.97 2.12,-1.17 0.41,-0.07 0.79,-0.15 1.1,-0.24 0.27,-0.07 0.49,-0.14 0.63,-0.21l0.14 -0.07 0.44 0.89 -0.11 0.07c-0.2,0.13 -0.46,0.23 -0.77,0.31 -0.31,0.08 -0.67,0.14 -1.09,0.21 -0.57,0.08 -0.97,0.23 -1.26,0.42l-0.14 0.11c0.14,-0.04 0.3,-0.06 0.47,-0.06 0.34,0 0.66,0.09 0.91,0.29 0.13,0.11 0.25,0.24 0.34,0.41 0.09,-0.17 0.22,-0.31 0.37,-0.42 0.26,-0.19 0.6,-0.27 1,-0.27 0.56,0 1.05,0.19 1.4,0.59 0.31,0.36 0.5,0.88 0.5,1.58 0,0.52 -0.07,0.97 -0.18,1.37 -0.11,0.4 -0.25,0.75 -0.39,1.07l-0.04 0.09 -1.21 0 0.08 -0.21c0.18,-0.45 0.31,-0.83 0.4,-1.2 0.09,-0.37 0.13,-0.72 0.13,-1.1 0,-0.5 -0.1,-0.8 -0.25,-0.97 -0.14,-0.16 -0.35,-0.22 -0.58,-0.22 -0.2,0 -0.37,0.05 -0.49,0.2 -0.11,0.13 -0.17,0.33 -0.17,0.62l0 1.53 -1.14 0 0 -1.53c0,-0.29 -0.07,-0.48 -0.18,-0.61 -0.13,-0.15 -0.32,-0.21 -0.51,-0.21 -0.27,0 -0.47,0.08 -0.59,0.26 -0.14,0.19 -0.2,0.49 -0.2,0.92 0,0.4 0.04,0.75 0.12,1.12 0.08,0.37 0.21,0.75 0.39,1.2l0.08 0.21 -0.23 0z"/>
   <path class="fil0" d="M133.45 48.3l0.85 0c-0.44,-1 -0.66,-1.99 -0.66,-3.47 0,-1.59 0.27,-2.12 1.05,-2.12 0.51,0 0.84,0.34 0.84,1.19l0 2.5 0.85 0 0 -2.5c0,-0.83 0.35,-1.2 0.89,-1.2 0.55,0 1,0.37 1,2.11 0,1.5 -0.25,2.49 -0.66,3.49l0.85 0c0.29,-0.66 0.69,-1.76 0.69,-3.5 0,-2.05 -0.76,-2.79 -1.84,-2.79 -0.76,0 -1.17,0.39 -1.35,1.05 -0.19,-0.66 -0.58,-1.05 -1.34,-1.05 -1.11,0 -1.86,0.71 -1.86,2.79 0,1.74 0.41,2.84 0.69,3.5z"/>
   <path class="fil0" d="M133.55 48.14l0.52 0c-0.18,-0.44 -0.32,-0.89 -0.42,-1.37 -0.11,-0.57 -0.17,-1.19 -0.17,-1.94 0,-0.82 0.07,-1.37 0.25,-1.72 0.19,-0.39 0.5,-0.55 0.95,-0.55 0.32,0 0.58,0.11 0.75,0.37 0.15,0.22 0.24,0.54 0.24,0.98l0 2.35 0.55 0 0 -2.35c0,-0.44 0.09,-0.76 0.26,-0.98 0.19,-0.25 0.46,-0.37 0.79,-0.37 0.33,0 0.62,0.11 0.84,0.48 0.19,0.33 0.31,0.88 0.31,1.78 0,0.76 -0.06,1.39 -0.18,1.96 -0.1,0.49 -0.24,0.94 -0.41,1.37l0.53 0c0.13,-0.31 0.28,-0.71 0.4,-1.22 0.13,-0.57 0.23,-1.26 0.23,-2.12 0,-0.94 -0.16,-1.58 -0.44,-2 -0.3,-0.45 -0.73,-0.63 -1.25,-0.63 -0.34,0 -0.61,0.09 -0.8,0.24 -0.19,0.16 -0.33,0.39 -0.41,0.7l-0.14 0.53 -0.15 -0.53c-0.09,-0.3 -0.22,-0.54 -0.41,-0.7 -0.19,-0.16 -0.45,-0.24 -0.79,-0.24 -0.51,0 -0.93,0.16 -1.22,0.55 -0.31,0.41 -0.48,1.08 -0.48,2.08 0,0.86 0.1,1.56 0.24,2.12 0.12,0.51 0.27,0.91 0.4,1.22zm0.75 0.3l-0.95 0 -0.04 -0.09c-0.14,-0.33 -0.32,-0.78 -0.46,-1.37 -0.14,-0.59 -0.25,-1.31 -0.25,-2.19 0,-1.07 0.2,-1.8 0.54,-2.26 0.36,-0.48 0.86,-0.68 1.47,-0.68 0.42,0 0.74,0.11 0.98,0.31 0.15,0.12 0.27,0.28 0.36,0.46 0.09,-0.18 0.21,-0.34 0.36,-0.46 0.25,-0.2 0.57,-0.31 0.99,-0.31 0.62,0 1.15,0.23 1.5,0.77 0.31,0.47 0.49,1.17 0.49,2.17 0,0.88 -0.1,1.61 -0.24,2.19 -0.14,0.58 -0.32,1.03 -0.46,1.37l-0.04 0.09 -1.18 0 0.09 -0.21c0.2,-0.49 0.37,-0.98 0.48,-1.53 0.11,-0.55 0.17,-1.16 0.17,-1.9 0,-0.84 -0.1,-1.34 -0.27,-1.63 -0.15,-0.25 -0.35,-0.33 -0.57,-0.33 -0.23,0 -0.42,0.08 -0.55,0.25 -0.13,0.17 -0.2,0.43 -0.2,0.8l0 2.66 -1.16 0 0 -2.66c0,-0.38 -0.07,-0.64 -0.18,-0.8 -0.11,-0.16 -0.29,-0.24 -0.5,-0.24 -0.33,0 -0.55,0.11 -0.68,0.38 -0.15,0.31 -0.22,0.82 -0.22,1.59 0,0.73 0.05,1.34 0.16,1.88 0.11,0.55 0.27,1.03 0.49,1.52l0.09 0.21 -0.23 0z"/>
   <polygon class="fil0" points="147.59,44.94 147.59,45.66 150.32,45.66 150.32,44.94 "/>
   <path class="fil0" d="M147.74 45.09l0 0.41 2.43 0 0 -0.41 -2.43 0zm-0.3 0.57l0 -0.87 3.04 0 0 1.02 -3.04 0 0 -0.15z"/>
  </g>
  <g id="_2846936549744">
   <path class="fil1" d="M42.5 12.32c-0.71,-0.83 -1.55,-1.53 -2.48,-2.07 -0.94,-0.55 -1.95,-0.98 -3,-1.3 -1.06,-0.32 -2.17,-0.54 -3.28,-0.67 -1.02,-0.11 -2.03,-0.18 -3,-0.19l-0.31 3.32c1.17,0.02 2.33,0.14 3.48,0.35 1.27,0.24 2.44,0.66 3.48,1.27 1.04,0.61 1.92,1.46 2.61,2.52 0.69,1.06 1.09,2.42 1.21,4.05 -0.08,1.04 0.22,5.26 -3.99,7.06 -1.59,0.68 -3.16,0.66 -4.75,0.02 -3.09,-1.24 -3.48,-5.01 -3.55,-5.32l-3.93 0c0.1,1.08 0.26,1.97 0.48,2.65l0.1 0.27c0.38,1 0.87,1.92 1.48,2.72 0.6,0.8 1.31,1.48 2.09,2.03 0.78,0.56 1.65,0.99 2.59,1.28 1.65,0.52 3.51,0.61 5.4,0.15 0.81,-0.2 1.61,-0.51 2.37,-0.91 0.76,-0.4 1.48,-0.92 2.14,-1.54 0.66,-0.62 1.25,-1.35 1.74,-2.18 0.49,-0.84 0.89,-1.79 1.18,-2.85 0.29,-1.06 0.43,-2.24 0.43,-3.53 -0.06,-1.56 -0.31,-2.95 -0.75,-4.12 -0.44,-1.17 -1.02,-2.18 -1.73,-3.01z"/>
   <path class="fil1" d="M135.03 12.32c-0.71,-0.83 -1.55,-1.53 -2.48,-2.07 -0.94,-0.55 -1.95,-0.98 -3.01,-1.3 -1.06,-0.32 -2.17,-0.54 -3.28,-0.67 -1.02,-0.11 -2.03,-0.18 -3,-0.19l-0.31 3.32c1.17,0.02 2.33,0.14 3.48,0.35 1.27,0.24 2.44,0.66 3.48,1.27 1.04,0.61 1.92,1.46 2.61,2.52 0.69,1.06 1.1,2.42 1.21,4.05 -0.07,1.04 0.22,5.26 -3.99,7.06 -1.59,0.68 -3.16,0.66 -4.75,0.02 -3.09,-1.24 -3.48,-5.01 -3.55,-5.32l-3.93 0c0.1,1.08 0.26,1.97 0.48,2.65l0.1 0.27c0.38,1 0.87,1.92 1.48,2.72 0.6,0.8 1.31,1.48 2.09,2.03 0.78,0.56 1.65,0.99 2.59,1.28 1.65,0.52 3.51,0.61 5.39,0.15 0.81,-0.2 1.61,-0.51 2.37,-0.91 0.76,-0.4 1.48,-0.92 2.15,-1.54 0.66,-0.62 1.25,-1.35 1.74,-2.18 0.49,-0.84 0.89,-1.79 1.18,-2.85 0.29,-1.06 0.43,-2.24 0.43,-3.53 -0.06,-1.56 -0.31,-2.95 -0.75,-4.12 -0.44,-1.17 -1.02,-2.18 -1.73,-3.01z"/>
   <path class="fil1" d="M15.19 25.26c-1.3,1.31 -2.9,2 -4.76,2.03l-0.34 0.01 0 -0.02c-1.7,-0.1 -3.19,-0.76 -4.41,-1.98 -1.33,-1.33 -2.01,-2.96 -2.03,-4.84 0,-1.89 0.67,-3.52 2.01,-4.85 1.3,-1.31 2.9,-2 4.76,-2.03l0.34 -0.01 0 0.02c1.71,0.1 3.19,0.76 4.41,1.99 1.33,1.33 2.01,2.96 2.03,4.84 0,1.89 -0.67,3.52 -2.01,4.85zm2.56 -12.24c-1.43,-1.43 -3.1,-2.36 -4.95,-2.8l0 -2.43c0,-6.19 -5.5,-7.78 -9.88,-7.78l0 3.93c0.6,0.01 5.88,-0.4 5.88,4.26 0,0.75 -0,1.35 -0.01,1.89 -1.41,0.23 -3.44,0.81 -4.99,2.26 -0.28,0.24 -0.53,0.47 -0.76,0.7 -2.03,2.05 -3.06,4.55 -3.04,7.43 0.02,2.88 1.06,5.36 3.09,7.37 2.02,2.02 4.49,3.06 7.33,3.09l0.09 0c0.72,-0.02 4.2,-0.22 6.53,-2.42 0.28,-0.24 0.53,-0.47 0.76,-0.7 2.03,-2.05 3.06,-4.55 3.04,-7.43 -0.02,-2.88 -1.06,-5.36 -3.09,-7.37l-0 -0z"/>
   <path class="fil1" d="M73.46 25.26c-1.3,1.31 -2.9,2 -4.76,2.03l-0.34 0.01 0 -0.02c-1.71,-0.1 -3.19,-0.76 -4.41,-1.98 -1.33,-1.33 -2.01,-2.96 -2.03,-4.84 0,-1.89 0.67,-3.52 2.01,-4.85 1.3,-1.31 2.9,-2 4.76,-2.03l0.34 -0.01 0 0.02c1.71,0.1 3.19,0.76 4.41,1.99 1.33,1.33 2.01,2.96 2.03,4.84 0,1.89 -0.68,3.52 -2.01,4.85zm-18.47 -14.47l-0.17 -0.01c-0.88,-0.05 -1.65,-0.4 -2.28,-1.03l0 0c-0.69,-0.69 -1.05,-1.54 -1.06,-2.51 0,-0.99 0.34,-1.81 1.04,-2.52 0.67,-0.68 1.49,-1.03 2.45,-1.05l0.17 0.01c0.88,0.05 1.65,0.4 2.28,1.03 0.69,0.69 1.05,1.54 1.06,2.51 0,0.99 -0.34,1.81 -1.04,2.51 -0.67,0.68 -1.5,1.03 -2.45,1.05zm21.03 2.23c-2.02,-2.02 -4.49,-3.06 -7.33,-3.09 -0.41,0 -4.05,0.08 -6.53,2.34l0 -4.92c0,-0.05 0.01,-0.09 0.01,-0.14 -0.01,-1.98 -0.73,-3.69 -2.13,-5.08 -1.39,-1.39 -3.09,-2.11 -5.05,-2.13 -0.29,0 -2.85,0.05 -4.57,1.67 -0.19,0.16 -0.36,0.32 -0.51,0.47 -1.4,1.41 -2.1,3.13 -2.09,5.11 0.01,1.98 0.73,3.69 2.13,5.08 1.39,1.39 3.09,2.11 5.05,2.13l0.06 0 0.01 0c0.35,-0.01 1.82,-0.09 3.22,-0.79l0 6.8 0 0c0.02,2.88 1.06,5.36 3.09,7.37 2.02,2.02 4.49,3.06 7.33,3.09l0.09 0c0.72,-0.02 4.2,-0.22 6.53,-2.42 0.28,-0.24 0.53,-0.47 0.76,-0.7 2.03,-2.05 3.06,-4.55 3.04,-7.43 -0.02,-2.88 -1.06,-5.36 -3.09,-7.37l-0 -0z"/>
   <path class="fil1" d="M106.86 25.26c-1.3,1.31 -2.9,2 -4.76,2.03l-0.34 0.01 0 -0.02c-1.7,-0.1 -3.19,-0.76 -4.41,-1.98 -1.33,-1.33 -2.01,-2.96 -2.03,-4.84 0,-1.89 0.68,-3.52 2.01,-4.85 1.3,-1.31 2.9,-2 4.76,-2.03l0.34 -0.01 0 0.02c1.71,0.1 3.19,0.76 4.41,1.99 1.33,1.33 2.01,2.96 2.03,4.84 0,1.89 -0.67,3.52 -2,4.85zm-18.47 -14.47l-0.18 -0.01c-0.88,-0.05 -1.65,-0.4 -2.28,-1.03l-0 0c-0.69,-0.69 -1.05,-1.54 -1.06,-2.51 0,-0.99 0.34,-1.81 1.04,-2.52 0.67,-0.68 1.49,-1.03 2.45,-1.05l0.17 0.01c0.88,0.05 1.65,0.4 2.28,1.03 0.69,0.69 1.05,1.54 1.06,2.51 0,0.99 -0.34,1.81 -1.04,2.51 -0.67,0.68 -1.49,1.03 -2.45,1.05zm21.02 2.23c-2.02,-2.02 -4.49,-3.06 -7.33,-3.09 -0.41,0 -4.05,0.08 -6.53,2.34l0 -4.93c0,-0.05 0.01,-0.09 0.01,-0.14 -0.01,-1.98 -0.73,-3.69 -2.13,-5.08 -1.39,-1.39 -3.09,-2.11 -5.05,-2.13 -0.29,0 -2.85,0.05 -4.57,1.67 -0.19,0.16 -0.35,0.32 -0.51,0.47 -1.4,1.41 -2.1,3.13 -2.09,5.11 0.01,1.98 0.73,3.69 2.13,5.08 1.39,1.39 3.09,2.11 5.05,2.13l0.06 0 0.01 0c0.35,-0.01 1.82,-0.09 3.21,-0.79l0 6.8c0.02,2.88 1.06,5.36 3.09,7.37 2.02,2.02 4.49,3.06 7.33,3.09l0.09 0c0.72,-0.02 4.2,-0.22 6.53,-2.42 0.28,-0.24 0.53,-0.47 0.75,-0.7 2.03,-2.05 3.06,-4.55 3.04,-7.43 -0.02,-2.88 -1.06,-5.36 -3.09,-7.37l-0 -0z"/>
   <path class="fil1" d="M164.17 21.64c-0.02,-2.88 -1.06,-5.36 -3.09,-7.37l-0 -0c-2.02,-2.02 -4.49,-3.06 -7.33,-3.09 -0.41,0 -4.05,0.08 -6.53,2.34l0 -8.84 6.7 0 0 -4.68c-2.84,0 -5.31,1.74 -6.7,2.97 0,0 -3.88,3.95 -3.88,6.99l0 12.37 0 8.31 3.88 0 0 -7.05 0 -3.62c0.29,-1.16 0.87,-2.21 1.77,-3.11 1.3,-1.31 2.9,-2 4.76,-2.03l0.34 -0.01 0 0.02c1.71,0.1 3.19,0.76 4.41,1.98 1.33,1.33 1.78,2.96 1.8,4.84 0,0 0,0.02 0.01,0.06l-0.01 0 0 8.92 3.88 0 0 -8.92 -0 0c0,-0.03 0,-0.05 0,-0.08z"/>
  </g>
 </g>
</svg>
