<?xml version="1.0" encoding="UTF-8"?>
<!DOCTYPE svg PUBLIC "-//W3C//DTD SVG 1.1//EN" "http://www.w3.org/Graphics/SVG/1.1/DTD/svg11.dtd">
<!-- Creator: CorelDRAW 2020 (64-Bit) -->
<svg xmlns="http://www.w3.org/2000/svg" xml:space="preserve" width="1.9464in" height="0.610335in" version="1.1" style="shape-rendering:geometricPrecision; text-rendering:geometricPrecision; image-rendering:optimizeQuality; fill-rule:evenodd; clip-rule:evenodd"
viewBox="0 0 139.85 43.85"
 xmlns:xlink="http://www.w3.org/1999/xlink"
 xmlns:xodm="http://www.corel.com/coreldraw/odm/2003">
 <defs>
  <style type="text/css">
   <![CDATA[
    .fil0 {fill:#373435;fill-rule:nonzero}
   ]]>
  </style>
 </defs>
 <g id="Layer_x0020_1">
  <metadata id="CorelCorpID_0Corel-Layer"/>
  <path class="fil0" d="M16.85 10.98c-0.84,0.85 -1.83,1.27 -3.03,1.28l-10.2 0 0 -8.64 10.16 0c1.2,0 2.2,0.41 3.05,1.26 0.85,0.85 1.27,1.85 1.28,3.05 0,1.2 -0.41,2.2 -1.27,3.05zm-13.23 4.9l10.84 0c1.2,0 2.2,0.41 3.05,1.26 0.86,0.85 1.28,1.85 1.28,3.05 0.01,1.2 -0.4,2.21 -1.25,3.07 -0.85,0.86 -1.85,1.28 -3.05,1.28l-10.88 0 0 -8.66zm15.85 -1.88l-0.31 -0.22c0.09,-0.09 0.19,-0.18 0.28,-0.27 1.54,-1.55 2.31,-3.44 2.3,-5.62 -0.01,-2.17 -0.8,-4.05 -2.34,-5.57 -1.54,-1.54 -3.41,-2.32 -5.58,-2.34l-13.82 0 0 28.19 14.51 0 0.29 -0.02 0 -0.01c2.05,-0.08 3.84,-0.87 5.31,-2.35 1.54,-1.55 2.31,-3.45 2.3,-5.63 0,-2.19 -0.79,-4.08 -2.34,-5.62l-0.6 -0.55z"/>
  <path class="fil0" d="M42.99 13.2c1.34,1.34 2.02,2.97 2.02,4.86 0,1.89 -0.68,3.52 -2.01,4.86 -1.35,1.34 -2.99,2.01 -4.88,2.01 -1.89,0 -3.52,-0.68 -4.86,-2.01 -1.34,-1.34 -2.01,-2.97 -2.01,-4.86 0,-1.89 0.68,-3.52 2.01,-4.86 1.34,-1.35 2.97,-2.03 4.86,-2.03 1.89,0 3.53,0.68 4.88,2.03zm2.02 -2.96c-1.93,-1.73 -4.25,-2.6 -6.89,-2.6 -2.85,0 -5.32,1.03 -7.35,3.05 -2.02,2.02 -3.05,4.5 -3.05,7.37 0,2.85 1.03,5.32 3.05,7.35 2.02,2.02 4.49,3.05 7.35,3.05 2.65,0 4.96,-0.87 6.89,-2.6l0 2.33 3.52 0 0 -20.29 -3.52 0 0 2.35z"/>
  <polygon class="fil0" points="55.51,7.86 55.51,11.38 66.4,11.38 54.59,28.19 72.25,28.19 72.25,24.67 61.36,24.67 73.17,7.86 "/>
  <polygon class="fil0" points="78.96,7.86 78.96,11.38 89.84,11.38 78.04,28.19 95.7,28.19 95.7,24.67 84.82,24.67 96.62,7.86 "/>
  <path class="fil0" d="M115.65 13.2c1.34,1.34 2.01,2.97 2.01,4.86 0,1.89 -0.68,3.52 -2.01,4.86 -1.35,1.34 -2.99,2.01 -4.88,2.01 -1.89,0 -3.52,-0.68 -4.86,-2.01 -1.34,-1.34 -2.01,-2.97 -2.01,-4.86 0,-1.89 0.68,-3.52 2.01,-4.86 1.34,-1.35 2.97,-2.03 4.86,-2.03 1.89,0 3.53,0.68 4.88,2.03zm2.01 -2.96c-1.93,-1.73 -4.25,-2.6 -6.89,-2.6 -2.85,0 -5.33,1.03 -7.35,3.05 -2.02,2.02 -3.05,4.5 -3.05,7.37 0,2.85 1.03,5.32 3.05,7.35 2.02,2.02 4.49,3.05 7.35,3.05 2.65,0 4.96,-0.87 6.89,-2.6l0 2.33 3.52 0 0 -20.29 -3.52 0 0 2.35z"/>
  <path class="fil0" d="M139.85 7.64l-1.5 0c-2.62,0 -4.88,1.6 -6.17,2.73l0 -2.63 -3.57 0 0 20.44 3.57 0 0 -16.24 7.67 0 0 -4.3z"/>
  <polygon class="fil0" points="18.74,41.28 18.74,41.83 20.83,41.83 20.83,41.28 "/>
  <path class="fil0" d="M29.38 40.08l-1.7 0 0 1.14 1.7 0c0.07,0 0.15,-0.01 0.22,-0.05 0.07,-0.03 0.13,-0.07 0.18,-0.13 0.05,-0.05 0.09,-0.11 0.12,-0.18 0.03,-0.07 0.04,-0.14 0.04,-0.22 0,-0.07 -0.01,-0.15 -0.04,-0.22 -0.03,-0.07 -0.07,-0.13 -0.12,-0.18 -0.05,-0.05 -0.11,-0.09 -0.18,-0.12 -0.07,-0.03 -0.14,-0.04 -0.22,-0.04zm0.92 1.51c0.27,0.26 0.4,0.57 0.4,0.95 0,0.36 -0.13,0.67 -0.38,0.93 -0.26,0.26 -0.57,0.38 -0.93,0.38l-2.45 0 0 -4.53 2.45 0c0.37,0 0.68,0.13 0.93,0.39 0.26,0.26 0.38,0.56 0.38,0.93 0,0.37 -0.13,0.69 -0.4,0.95zm-0.92 1.51c0.07,0 0.15,-0.01 0.22,-0.04 0.07,-0.03 0.13,-0.07 0.18,-0.12 0.05,-0.05 0.09,-0.11 0.12,-0.18 0.03,-0.07 0.04,-0.14 0.04,-0.21 0,-0.15 -0.06,-0.29 -0.17,-0.4 -0.11,-0.11 -0.24,-0.17 -0.39,-0.17l-1.7 0 0 1.13 1.7 0zm6.58 -3.77c0.63,0 1.16,0.22 1.6,0.67 0.45,0.44 0.67,0.97 0.67,1.6 0,0.63 -0.22,1.16 -0.67,1.6 -0.44,0.44 -0.97,0.67 -1.6,0.67 -0.63,0 -1.16,-0.22 -1.6,-0.67 -0.44,-0.44 -0.67,-0.97 -0.67,-1.6 0,-0.62 0.22,-1.15 0.67,-1.6 0.44,-0.44 0.97,-0.67 1.6,-0.67zm0 0.75c-0.41,0 -0.77,0.15 -1.07,0.44 -0.29,0.3 -0.44,0.65 -0.44,1.06 0,0.41 0.15,0.77 0.44,1.07 0.3,0.29 0.66,0.44 1.07,0.44 0.41,0 0.77,-0.15 1.06,-0.44 0.3,-0.3 0.44,-0.66 0.44,-1.07 0,-0.41 -0.15,-0.77 -0.44,-1.06 -0.3,-0.3 -0.65,-0.44 -1.06,-0.44zm9.04 1.89c0,0.52 -0.19,0.97 -0.56,1.34 -0.37,0.37 -0.82,0.55 -1.34,0.55 -0.51,0 -0.96,-0.18 -1.33,-0.55 -0.37,-0.37 -0.55,-0.82 -0.55,-1.34l0 -2.64 0.75 0 0 2.64c0,0.31 0.11,0.58 0.33,0.8 0.22,0.22 0.49,0.33 0.8,0.33 0.31,0 0.58,-0.11 0.8,-0.33 0.23,-0.22 0.34,-0.49 0.34,-0.8l0 -2.64 0.76 0 0 2.64zm3 -2.64l3.78 0 0 0.75 -1.51 0 0 3.77 -0.76 0 0 -3.77 -1.51 0 0 -0.75zm6.78 0l0.75 0 0 4.53 -0.75 0 0 -4.53zm6.02 0c0.63,0 1.16,0.22 1.6,0.67 0.45,0.44 0.67,0.97 0.67,1.6 0,0.48 -0.14,0.92 -0.42,1.31l0.42 0.42 -0.54 0.54 -0.42 -0.42c-0.39,0.28 -0.83,0.42 -1.31,0.42 -0.63,0 -1.16,-0.22 -1.6,-0.67 -0.44,-0.44 -0.67,-0.97 -0.67,-1.6 0,-0.62 0.22,-1.15 0.67,-1.6 0.44,-0.44 0.97,-0.67 1.6,-0.67zm0 0.75c-0.41,0 -0.77,0.15 -1.07,0.44 -0.29,0.3 -0.44,0.65 -0.44,1.06 0,0.41 0.15,0.77 0.44,1.07 0.3,0.29 0.66,0.44 1.07,0.44 0.41,0 0.77,-0.15 1.06,-0.44 0.3,-0.3 0.44,-0.66 0.44,-1.07 0,-0.41 -0.15,-0.77 -0.44,-1.06 -0.3,-0.3 -0.65,-0.44 -1.06,-0.44zm9.04 1.89c0,0.52 -0.19,0.97 -0.56,1.34 -0.37,0.37 -0.82,0.55 -1.34,0.55 -0.51,0 -0.96,-0.18 -1.33,-0.55 -0.37,-0.37 -0.55,-0.82 -0.55,-1.34l0 -2.64 0.75 0 0 2.64c0,0.31 0.11,0.58 0.33,0.8 0.22,0.22 0.49,0.33 0.8,0.33 0.31,0 0.58,-0.11 0.8,-0.33 0.23,-0.22 0.34,-0.49 0.34,-0.8l0 -2.64 0.76 0 0 2.64zm6.02 -2.64l0 0.75 -2.26 0 0 1.14 2.26 0 0 0.75 -2.26 0 0 1.13 2.26 0 0 0.76 -3.02 0 0 -4.53 3.02 0zm6.68 0l0.75 0 0 1.89 2.26 0 0 -1.89 0.76 0 0 4.53 -0.76 0 0 -1.89 -2.26 0 0 1.89 -0.75 0 0 -4.53zm9.04 0c0.63,0 1.16,0.22 1.6,0.67 0.45,0.44 0.67,0.97 0.67,1.6 0,0.63 -0.22,1.16 -0.67,1.6 -0.44,0.44 -0.97,0.67 -1.6,0.67 -0.63,0 -1.16,-0.22 -1.6,-0.67 -0.44,-0.44 -0.67,-0.97 -0.67,-1.6 0,-0.62 0.22,-1.15 0.67,-1.6 0.44,-0.44 0.97,-0.67 1.6,-0.67zm0 0.75c-0.41,0 -0.77,0.15 -1.07,0.44 -0.29,0.3 -0.44,0.65 -0.44,1.06 0,0.41 0.15,0.77 0.44,1.07 0.3,0.29 0.66,0.44 1.07,0.44 0.41,0 0.77,-0.15 1.06,-0.44 0.3,-0.3 0.44,-0.66 0.44,-1.07 0,-0.41 -0.15,-0.77 -0.44,-1.06 -0.3,-0.3 -0.65,-0.44 -1.06,-0.44zm4.66 -0.75l3.78 0 0 0.75 -1.51 0 0 3.77 -0.76 0 0 -3.77 -1.51 0 0 -0.75zm9.79 0l0 0.75 -2.26 0 0 1.14 2.26 0 0 0.75 -2.26 0 0 1.13 2.26 0 0 0.76 -3.02 0 0 -4.53 3.02 0zm3 0l0.75 0 0 3.77 2.26 0 0 0.76 -3.02 0 0 -4.53z"/>
  <polygon class="fil0" points="118.33,41.28 118.33,41.83 120.43,41.83 120.43,41.28 "/>
 </g>
</svg>
